<?xml version="1.0" encoding="UTF-8"?>
<svg id="Ebene_2" data-name="Ebene 2" xmlns="http://www.w3.org/2000/svg" viewBox="0 0 124.3 135.9">
  <defs>
    <style>
      .cls-1 {
        fill: #231f20;
      }
    </style>
  </defs>
  <g id="Layer_1" data-name="Layer 1">
    <g id="SoundPlayIcon-4">
      <g>
        <path class="cls-1" d="M62.15,135.9c-16.6,0-32.21-6.46-43.95-18.2C6.46,105.96,0,90.35,0,73.75S6.46,41.54,18.2,29.81c3.18-3.18,8.34-3.18,11.52,0,3.18,3.18,3.18,8.34,0,11.52-8.66,8.66-13.43,20.17-13.43,32.42s4.77,23.76,13.43,32.42c8.66,8.66,20.17,13.43,32.42,13.43s23.76-4.77,32.42-13.43c8.66-8.66,13.43-20.17,13.43-32.42s-4.77-23.76-13.43-32.42c-3.18-3.18-3.18-8.34,0-11.52,3.18-3.18,8.34-3.18,11.52,0,11.74,11.74,18.2,27.34,18.2,43.95s-6.46,32.21-18.2,43.95c-11.74,11.74-27.34,18.2-43.95,18.2Z"/>
        <path class="cls-1" d="M62.15,71.14c-4.5,0-8.15-3.65-8.15-8.15V8.15c0-4.5,3.65-8.15,8.15-8.15s8.15,3.65,8.15,8.15v54.84c0,4.5-3.65,8.15-8.15,8.15Z"/>
      </g>
    </g>
  </g>
</svg>